<svg data-v-423bf9ae="" xmlns="http://www.w3.org/2000/svg" viewBox="0 60 465 86" class="iconLeft"><g data-v-423bf9ae="" id="20f6ae4a-795b-4bde-aac5-c4ae4ffe121f" fill="white" transform="matrix(5.459508284166465,0,0,5.459508284166465,47,66.98538485477286)"><path d="M4.73 4.62Q5.81 4.62 6.69 5.13Q7.56 5.64 8.07 6.53Q8.58 7.42 8.58 8.51L8.58 8.51L8.58 11.63Q8.58 11.94 8.38 12.14Q8.18 12.35 7.87 12.35L7.87 12.35Q7.56 12.35 7.36 12.14Q7.15 11.94 7.15 11.63L7.15 11.63L7.15 11.12Q6.66 11.72 5.96 12.05Q5.26 12.39 4.45 12.39L4.45 12.39Q3.44 12.39 2.63 11.89Q1.81 11.38 1.34 10.49Q0.87 9.60 0.87 8.51L0.87 8.51Q0.87 7.42 1.37 6.53Q1.88 5.64 2.77 5.13Q3.65 4.62 4.73 4.62L4.73 4.62ZM4.73 11.13Q5.43 11.13 6.00 10.79Q6.57 10.44 6.89 9.85Q7.21 9.25 7.21 8.51L7.21 8.51Q7.21 7.77 6.89 7.17Q6.57 6.57 6.00 6.22Q5.43 5.88 4.73 5.88L4.73 5.88Q4.03 5.88 3.46 6.22Q2.90 6.57 2.57 7.17Q2.24 7.77 2.24 8.51L2.24 8.51Q2.24 9.25 2.57 9.85Q2.90 10.44 3.46 10.79Q4.03 11.13 4.73 11.13L4.73 11.13ZM10.85 5.39Q10.85 5.07 11.05 4.87Q11.26 4.68 11.56 4.68L11.56 4.68Q11.89 4.68 12.08 4.87Q12.28 5.07 12.28 5.39L12.28 5.39L12.28 11.62Q12.28 11.93 12.08 12.13Q11.89 12.33 11.56 12.33L11.56 12.33Q11.26 12.33 11.05 12.13Q10.85 11.93 10.85 11.62L10.85 11.62L10.85 5.39ZM11.56 1.58Q11.94 1.58 12.22 1.85Q12.49 2.13 12.49 2.51L12.49 2.51Q12.49 2.88 12.22 3.16Q11.94 3.43 11.56 3.43L11.56 3.43Q11.19 3.43 10.91 3.16Q10.64 2.88 10.64 2.51L10.64 2.51Q10.64 2.13 10.91 1.85Q11.19 1.58 11.56 1.58L11.56 1.58ZM21.55 1.40Q21.87 1.40 22.06 1.60Q22.26 1.79 22.26 2.11L22.26 2.11L22.26 8.50Q22.26 9.59 21.75 10.48Q21.24 11.37 20.36 11.88Q19.49 12.39 18.41 12.39L18.41 12.39Q17.33 12.39 16.44 11.88Q15.55 11.37 15.05 10.48Q14.55 9.59 14.55 8.50L14.55 8.50Q14.55 7.41 15.02 6.52Q15.48 5.63 16.30 5.12Q17.12 4.62 18.13 4.62L18.13 4.62Q18.94 4.62 19.64 4.96Q20.34 5.29 20.83 5.89L20.83 5.89L20.83 2.11Q20.83 1.79 21.04 1.60Q21.24 1.40 21.55 1.40L21.55 1.40ZM18.41 11.13Q19.11 11.13 19.68 10.79Q20.24 10.44 20.57 9.84Q20.89 9.24 20.89 8.50L20.89 8.50Q20.89 7.76 20.57 7.16Q20.24 6.57 19.68 6.22Q19.11 5.88 18.41 5.88L18.41 5.88Q17.71 5.88 17.14 6.22Q16.58 6.57 16.25 7.16Q15.92 7.76 15.92 8.50L15.92 8.50Q15.92 9.24 16.25 9.84Q16.58 10.44 17.14 10.79Q17.71 11.13 18.41 11.13L18.41 11.13ZM28.25 4.62Q29.36 4.62 30.23 5.12Q31.11 5.61 31.61 6.50Q32.10 7.38 32.10 8.51L32.10 8.51Q32.10 9.63 31.61 10.51Q31.12 11.40 30.25 11.89Q29.37 12.39 28.25 12.39L28.25 12.39Q27.13 12.39 26.25 11.89Q25.37 11.40 24.88 10.51Q24.39 9.63 24.39 8.51L24.39 8.51Q24.39 7.38 24.88 6.50Q25.37 5.61 26.25 5.12Q27.13 4.62 28.25 4.62L28.25 4.62ZM28.25 5.88Q27.54 5.88 26.97 6.22Q26.40 6.55 26.08 7.15Q25.76 7.76 25.76 8.51L25.76 8.51Q25.76 9.27 26.08 9.86Q26.40 10.46 26.97 10.79Q27.54 11.13 28.25 11.13L28.25 11.13Q28.97 11.13 29.53 10.79Q30.10 10.46 30.42 9.86Q30.73 9.27 30.73 8.51L30.73 8.51Q30.73 7.76 30.42 7.15Q30.10 6.55 29.53 6.22Q28.97 5.88 28.25 5.88L28.25 5.88ZM37.53 2.69Q36.75 2.69 36.27 3.21Q35.80 3.72 35.80 4.58L35.80 4.58L35.80 4.96L37.23 4.96Q37.52 4.96 37.70 5.12Q37.88 5.29 37.88 5.57L37.88 5.57Q37.88 5.82 37.70 5.99Q37.52 6.16 37.23 6.16L37.23 6.16L35.80 6.16L35.80 11.62Q35.80 11.94 35.60 12.14Q35.41 12.33 35.06 12.33L35.06 12.33Q34.78 12.33 34.57 12.14Q34.37 11.94 34.37 11.62L34.37 11.62L34.37 6.16L33.77 6.16Q33.47 6.16 33.29 5.99Q33.11 5.82 33.11 5.57L33.11 5.57Q33.11 5.29 33.29 5.12Q33.47 4.96 33.77 4.96L33.77 4.96L34.37 4.96L34.37 4.72Q34.37 3.72 34.77 2.97Q35.17 2.23 35.89 1.81Q36.61 1.40 37.53 1.40L37.53 1.40Q37.84 1.40 38.05 1.58Q38.25 1.76 38.25 2.04L38.25 2.04Q38.25 2.32 38.05 2.51Q37.84 2.69 37.53 2.69L37.53 2.69ZM42.56 4.62Q43.67 4.62 44.54 5.12Q45.42 5.61 45.91 6.50Q46.41 7.38 46.41 8.51L46.41 8.51Q46.41 9.63 45.92 10.51Q45.43 11.40 44.56 11.89Q43.68 12.39 42.56 12.39L42.56 12.39Q41.44 12.39 40.56 11.89Q39.68 11.40 39.19 10.51Q38.70 9.63 38.70 8.51L38.70 8.51Q38.70 7.38 39.19 6.50Q39.68 5.61 40.56 5.12Q41.44 4.62 42.56 4.62L42.56 4.62ZM42.56 5.88Q41.85 5.88 41.28 6.22Q40.71 6.55 40.39 7.15Q40.07 7.76 40.07 8.51L40.07 8.51Q40.07 9.27 40.39 9.86Q40.71 10.46 41.28 10.79Q41.85 11.13 42.56 11.13L42.56 11.13Q43.27 11.13 43.84 10.79Q44.41 10.46 44.72 9.86Q45.04 9.27 45.04 8.51L45.04 8.51Q45.04 7.76 44.72 7.15Q44.41 6.55 43.84 6.22Q43.27 5.88 42.56 5.88L42.56 5.88ZM52.29 4.59Q53.03 4.59 53.45 4.82Q53.87 5.04 53.87 5.38L53.87 5.38Q53.87 5.47 53.86 5.52L53.86 5.52Q53.73 5.96 53.30 5.96L53.30 5.96Q53.23 5.96 53.09 5.94L53.09 5.94Q52.53 5.84 52.18 5.84L52.18 5.84Q51.17 5.84 50.55 6.30Q49.94 6.76 49.94 7.55L49.94 7.55L49.94 11.63Q49.94 11.97 49.76 12.15Q49.59 12.33 49.24 12.33L49.24 12.33Q48.90 12.33 48.72 12.16Q48.54 11.98 48.54 11.63L48.54 11.63L48.54 5.38Q48.54 5.04 48.72 4.86Q48.90 4.68 49.24 4.68L49.24 4.68Q49.94 4.68 49.94 5.38L49.94 5.38L49.94 5.64Q50.36 5.15 50.97 4.87Q51.59 4.59 52.29 4.59L52.29 4.59ZM63.39 4.61Q64.61 4.61 65.36 5.40Q66.11 6.20 66.11 7.63L66.11 7.63L66.11 11.63Q66.11 11.94 65.91 12.14Q65.72 12.35 65.39 12.35L65.39 12.35Q65.09 12.35 64.88 12.14Q64.68 11.94 64.68 11.63L64.68 11.63L64.68 7.63Q64.68 6.78 64.25 6.33Q63.83 5.89 63.11 5.89L63.11 5.89Q62.38 5.89 61.92 6.40Q61.45 6.90 61.45 7.69L61.45 7.69L61.45 11.63Q61.45 11.94 61.25 12.14Q61.05 12.35 60.73 12.35L60.73 12.35Q60.42 12.35 60.22 12.14Q60.02 11.94 60.02 11.63L60.02 11.63L60.02 7.63Q60.02 6.78 59.59 6.33Q59.16 5.89 58.45 5.89L58.45 5.89Q57.71 5.89 57.24 6.40Q56.77 6.90 56.77 7.69L56.77 7.69L56.77 11.63Q56.77 11.94 56.57 12.14Q56.38 12.35 56.06 12.35L56.06 12.35Q55.75 12.35 55.55 12.14Q55.34 11.94 55.34 11.63L55.34 11.63L55.34 5.40Q55.34 5.08 55.55 4.89Q55.75 4.69 56.06 4.69L56.06 4.69Q56.36 4.69 56.56 4.88Q56.76 5.07 56.77 5.38L56.77 5.38Q57.13 5.01 57.64 4.81Q58.14 4.61 58.73 4.61L58.73 4.61Q59.44 4.61 60.01 4.89Q60.58 5.18 60.94 5.71L60.94 5.71Q61.36 5.19 61.99 4.90Q62.62 4.61 63.39 4.61L63.39 4.61ZM75.35 8.39Q75.35 8.65 75.17 8.83Q74.98 9.00 74.70 9.00L74.70 9.00L69.38 9.00Q69.54 9.98 70.27 10.58Q71.01 11.19 72.07 11.19L72.07 11.19Q72.49 11.19 72.95 11.03Q73.40 10.88 73.70 10.65L73.70 10.65Q73.89 10.50 74.16 10.50L74.16 10.50Q74.42 10.50 74.58 10.64L74.58 10.64Q74.83 10.85 74.83 11.12L74.83 11.12Q74.83 11.37 74.61 11.54L74.61 11.54Q74.13 11.91 73.42 12.15Q72.72 12.39 72.07 12.39L72.07 12.39Q70.92 12.39 70.01 11.89Q69.10 11.40 68.59 10.51Q68.08 9.63 68.08 8.51L68.08 8.51Q68.08 7.39 68.57 6.50Q69.05 5.61 69.91 5.12Q70.77 4.62 71.86 4.62L71.86 4.62Q72.94 4.62 73.72 5.10Q74.51 5.57 74.93 6.43Q75.35 7.28 75.35 8.39L75.35 8.39ZM71.86 5.82Q70.84 5.82 70.20 6.38Q69.57 6.94 69.40 7.88L69.40 7.88L74.06 7.88Q73.93 6.94 73.36 6.38Q72.79 5.82 71.86 5.82L71.86 5.82Z"></path></g><g data-v-423bf9ae="" id="b666683c-2255-454a-ba64-f0c0f517d01c" transform="matrix(0.2625,0,0,0.2625,0,83.8)" stroke="none" fill="white"><path d="M79.2 10.583c-37.896 0-68.617 30.721-68.617 68.617s30.721 68.617 68.617 68.617 68.617-30.721 68.617-68.617S117.096 10.583 79.2 10.583m0 120.587c-28.702 0-51.97-23.268-51.97-51.97S50.498 27.23 79.2 27.23s51.97 23.268 51.97 51.97-23.268 51.97-51.97 51.97"></path></g></svg>